%TF.GenerationSoftware,KiCad,Pcbnew,5.1.8-db9833491~87~ubuntu20.04.1*%
%TF.CreationDate,2020-11-15T22:53:27-05:00*%
%TF.ProjectId,shield,73686965-6c64-42e6-9b69-6361645f7063,rev?*%
%TF.SameCoordinates,Original*%
%TF.FileFunction,Soldermask,Bot*%
%TF.FilePolarity,Negative*%
%FSLAX46Y46*%
G04 Gerber Fmt 4.6, Leading zero omitted, Abs format (unit mm)*
G04 Created by KiCad (PCBNEW 5.1.8-db9833491~87~ubuntu20.04.1) date 2020-11-15 22:53:27*
%MOMM*%
%LPD*%
G01*
G04 APERTURE LIST*
%ADD10C,0.300000*%
%ADD11R,1.700000X1.700000*%
%ADD12O,1.700000X1.700000*%
%ADD13C,1.600000*%
%ADD14O,1.600000X1.600000*%
%ADD15R,1.500000X1.050000*%
%ADD16O,1.500000X1.050000*%
G04 APERTURE END LIST*
D10*
X140378571Y-94028571D02*
X138878571Y-94028571D01*
X139592857Y-94028571D02*
X139592857Y-94885714D01*
X140378571Y-94885714D02*
X138878571Y-94885714D01*
X140307142Y-96171428D02*
X140378571Y-96028571D01*
X140378571Y-95742857D01*
X140307142Y-95600000D01*
X140164285Y-95528571D01*
X139592857Y-95528571D01*
X139450000Y-95600000D01*
X139378571Y-95742857D01*
X139378571Y-96028571D01*
X139450000Y-96171428D01*
X139592857Y-96242857D01*
X139735714Y-96242857D01*
X139878571Y-95528571D01*
X140378571Y-97528571D02*
X139592857Y-97528571D01*
X139450000Y-97457142D01*
X139378571Y-97314285D01*
X139378571Y-97028571D01*
X139450000Y-96885714D01*
X140307142Y-97528571D02*
X140378571Y-97385714D01*
X140378571Y-97028571D01*
X140307142Y-96885714D01*
X140164285Y-96814285D01*
X140021428Y-96814285D01*
X139878571Y-96885714D01*
X139807142Y-97028571D01*
X139807142Y-97385714D01*
X139735714Y-97528571D01*
X140378571Y-98457142D02*
X140307142Y-98314285D01*
X140164285Y-98242857D01*
X138878571Y-98242857D01*
X139378571Y-98814285D02*
X139378571Y-99385714D01*
X138878571Y-99028571D02*
X140164285Y-99028571D01*
X140307142Y-99100000D01*
X140378571Y-99242857D01*
X140378571Y-99385714D01*
X140378571Y-99885714D02*
X138878571Y-99885714D01*
X140378571Y-100528571D02*
X139592857Y-100528571D01*
X139450000Y-100457142D01*
X139378571Y-100314285D01*
X139378571Y-100100000D01*
X139450000Y-99957142D01*
X139521428Y-99885714D01*
X139378571Y-101100000D02*
X140378571Y-101457142D01*
X139378571Y-101814285D02*
X140378571Y-101457142D01*
X140735714Y-101314285D01*
X140807142Y-101242857D01*
X140878571Y-101100000D01*
X140378571Y-103100000D02*
X140378571Y-102385714D01*
X138878571Y-102385714D01*
X140307142Y-104171428D02*
X140378571Y-104028571D01*
X140378571Y-103742857D01*
X140307142Y-103600000D01*
X140164285Y-103528571D01*
X139592857Y-103528571D01*
X139450000Y-103600000D01*
X139378571Y-103742857D01*
X139378571Y-104028571D01*
X139450000Y-104171428D01*
X139592857Y-104242857D01*
X139735714Y-104242857D01*
X139878571Y-103528571D01*
X140378571Y-105528571D02*
X139592857Y-105528571D01*
X139450000Y-105457142D01*
X139378571Y-105314285D01*
X139378571Y-105028571D01*
X139450000Y-104885714D01*
X140307142Y-105528571D02*
X140378571Y-105385714D01*
X140378571Y-105028571D01*
X140307142Y-104885714D01*
X140164285Y-104814285D01*
X140021428Y-104814285D01*
X139878571Y-104885714D01*
X139807142Y-105028571D01*
X139807142Y-105385714D01*
X139735714Y-105528571D01*
X139378571Y-106100000D02*
X140378571Y-106457142D01*
X139378571Y-106814285D01*
X140307142Y-107957142D02*
X140378571Y-107814285D01*
X140378571Y-107528571D01*
X140307142Y-107385714D01*
X140164285Y-107314285D01*
X139592857Y-107314285D01*
X139450000Y-107385714D01*
X139378571Y-107528571D01*
X139378571Y-107814285D01*
X139450000Y-107957142D01*
X139592857Y-108028571D01*
X139735714Y-108028571D01*
X139878571Y-107314285D01*
X140307142Y-108600000D02*
X140378571Y-108742857D01*
X140378571Y-109028571D01*
X140307142Y-109171428D01*
X140164285Y-109242857D01*
X140092857Y-109242857D01*
X139950000Y-109171428D01*
X139878571Y-109028571D01*
X139878571Y-108814285D01*
X139807142Y-108671428D01*
X139664285Y-108600000D01*
X139592857Y-108600000D01*
X139450000Y-108671428D01*
X139378571Y-108814285D01*
X139378571Y-109028571D01*
X139450000Y-109171428D01*
D11*
%TO.C,J1*%
X151257000Y-78105000D03*
D12*
X151257000Y-80645000D03*
X151257000Y-83185000D03*
X151257000Y-85725000D03*
X151257000Y-88265000D03*
X151257000Y-90805000D03*
X151257000Y-93345000D03*
X151257000Y-95885000D03*
X151257000Y-98425000D03*
X151257000Y-100965000D03*
X151257000Y-103505000D03*
X151257000Y-106045000D03*
X151257000Y-108585000D03*
X151257000Y-111125000D03*
X151257000Y-113665000D03*
X151257000Y-116205000D03*
X151257000Y-118745000D03*
X151257000Y-121285000D03*
X151257000Y-123825000D03*
X151257000Y-126365000D03*
%TD*%
%TO.C,J2*%
X128143000Y-126365000D03*
X128143000Y-123825000D03*
X128143000Y-121285000D03*
X128143000Y-118745000D03*
X128143000Y-116205000D03*
X128143000Y-113665000D03*
X128143000Y-111125000D03*
X128143000Y-108585000D03*
X128143000Y-106045000D03*
X128143000Y-103505000D03*
X128143000Y-100965000D03*
X128143000Y-98425000D03*
X128143000Y-95885000D03*
X128143000Y-93345000D03*
X128143000Y-90805000D03*
X128143000Y-88265000D03*
X128143000Y-85725000D03*
X128143000Y-83185000D03*
X128143000Y-80645000D03*
D11*
X128143000Y-78105000D03*
%TD*%
D13*
%TO.C,R1*%
X144780000Y-84455000D03*
X144780000Y-81915000D03*
%TD*%
D14*
%TO.C,R2*%
X144780000Y-78740000D03*
D13*
X134620000Y-78740000D03*
%TD*%
D15*
%TO.C,U1*%
X134620000Y-84455000D03*
D16*
X134620000Y-81915000D03*
X134620000Y-83185000D03*
%TD*%
M02*
