M48
; DRILL file {KiCad 5.1.8-db9833491~87~ubuntu20.04.1} date Mon Nov 16 22:31:34 2020
; FORMAT={-:-/ absolute / inch / decimal}
; #@! TF.CreationDate,2020-11-16T22:31:34-05:00
; #@! TF.GenerationSoftware,Kicad,Pcbnew,5.1.8-db9833491~87~ubuntu20.04.1
; #@! TF.FileFunction,Plated,1,2,PTH
FMAT,2
INCH
T1C0.0157
T2C0.0295
T3C0.0315
T4C0.0394
%
G90
G05
T1
X5.8Y-3.275
T2
X5.3Y-3.225
X5.3Y-3.275
X5.3Y-3.325
T3
X5.3Y-3.1
X5.7Y-3.1
X5.7Y-3.225
X5.7Y-3.325
T4
X5.955Y-3.075
X5.955Y-3.175
X5.955Y-3.275
X5.955Y-3.375
X5.955Y-3.475
X5.955Y-3.575
X5.955Y-3.675
X5.955Y-3.775
X5.955Y-3.875
X5.955Y-3.975
X5.955Y-4.075
X5.955Y-4.175
X5.955Y-4.275
X5.955Y-4.375
X5.955Y-4.475
X5.955Y-4.575
X5.955Y-4.675
X5.955Y-4.775
X5.955Y-4.875
X5.955Y-4.975
X5.4Y-4.825
X5.5Y-4.825
X5.6Y-4.825
X5.045Y-3.075
X5.045Y-3.175
X5.045Y-3.275
X5.045Y-3.375
X5.045Y-3.475
X5.045Y-3.575
X5.045Y-3.675
X5.045Y-3.775
X5.045Y-3.875
X5.045Y-3.975
X5.045Y-4.075
X5.045Y-4.175
X5.045Y-4.275
X5.045Y-4.375
X5.045Y-4.475
X5.045Y-4.575
X5.045Y-4.675
X5.045Y-4.775
X5.045Y-4.875
X5.045Y-4.975
T0
M30
