%TF.GenerationSoftware,KiCad,Pcbnew,5.1.8-db9833491~87~ubuntu20.04.1*%
%TF.CreationDate,2020-11-16T22:31:41-05:00*%
%TF.ProjectId,shield,73686965-6c64-42e6-9b69-6361645f7063,rev?*%
%TF.SameCoordinates,Original*%
%TF.FileFunction,Legend,Top*%
%TF.FilePolarity,Positive*%
%FSLAX46Y46*%
G04 Gerber Fmt 4.6, Leading zero omitted, Abs format (unit mm)*
G04 Created by KiCad (PCBNEW 5.1.8-db9833491~87~ubuntu20.04.1) date 2020-11-16 22:31:41*
%MOMM*%
%LPD*%
G01*
G04 APERTURE LIST*
%ADD10C,0.150000*%
%ADD11C,0.120000*%
G04 APERTURE END LIST*
D10*
X136533333Y-119784761D02*
X136676190Y-119832380D01*
X136914285Y-119832380D01*
X137009523Y-119784761D01*
X137057142Y-119737142D01*
X137104761Y-119641904D01*
X137104761Y-119546666D01*
X137057142Y-119451428D01*
X137009523Y-119403809D01*
X136914285Y-119356190D01*
X136723809Y-119308571D01*
X136628571Y-119260952D01*
X136580952Y-119213333D01*
X136533333Y-119118095D01*
X136533333Y-119022857D01*
X136580952Y-118927619D01*
X136628571Y-118880000D01*
X136723809Y-118832380D01*
X136961904Y-118832380D01*
X137104761Y-118880000D01*
X137533333Y-119308571D02*
X137866666Y-119308571D01*
X138009523Y-119832380D02*
X137533333Y-119832380D01*
X137533333Y-118832380D01*
X138009523Y-118832380D01*
X138438095Y-119832380D02*
X138438095Y-118832380D01*
X139009523Y-119832380D01*
X139009523Y-118832380D01*
X139676190Y-118832380D02*
X139771428Y-118832380D01*
X139866666Y-118880000D01*
X139914285Y-118927619D01*
X139961904Y-119022857D01*
X140009523Y-119213333D01*
X140009523Y-119451428D01*
X139961904Y-119641904D01*
X139914285Y-119737142D01*
X139866666Y-119784761D01*
X139771428Y-119832380D01*
X139676190Y-119832380D01*
X139580952Y-119784761D01*
X139533333Y-119737142D01*
X139485714Y-119641904D01*
X139438095Y-119451428D01*
X139438095Y-119213333D01*
X139485714Y-119022857D01*
X139533333Y-118927619D01*
X139580952Y-118880000D01*
X139676190Y-118832380D01*
X140961904Y-119832380D02*
X140390476Y-119832380D01*
X140676190Y-119832380D02*
X140676190Y-118832380D01*
X140580952Y-118975238D01*
X140485714Y-119070476D01*
X140390476Y-119118095D01*
X141438095Y-119832380D02*
X141628571Y-119832380D01*
X141723809Y-119784761D01*
X141771428Y-119737142D01*
X141866666Y-119594285D01*
X141914285Y-119403809D01*
X141914285Y-119022857D01*
X141866666Y-118927619D01*
X141819047Y-118880000D01*
X141723809Y-118832380D01*
X141533333Y-118832380D01*
X141438095Y-118880000D01*
X141390476Y-118927619D01*
X141342857Y-119022857D01*
X141342857Y-119260952D01*
X141390476Y-119356190D01*
X141438095Y-119403809D01*
X141533333Y-119451428D01*
X141723809Y-119451428D01*
X141819047Y-119403809D01*
X141866666Y-119356190D01*
X141914285Y-119260952D01*
X142247619Y-118832380D02*
X142866666Y-118832380D01*
X142533333Y-119213333D01*
X142676190Y-119213333D01*
X142771428Y-119260952D01*
X142819047Y-119308571D01*
X142866666Y-119403809D01*
X142866666Y-119641904D01*
X142819047Y-119737142D01*
X142771428Y-119784761D01*
X142676190Y-119832380D01*
X142390476Y-119832380D01*
X142295238Y-119784761D01*
X142247619Y-119737142D01*
X138501571Y-81732380D02*
X137930142Y-81732380D01*
X138215857Y-81732380D02*
X138215857Y-80732380D01*
X138120619Y-80875238D01*
X138025380Y-80970476D01*
X137930142Y-81018095D01*
X139120619Y-80732380D02*
X139215857Y-80732380D01*
X139311095Y-80780000D01*
X139358714Y-80827619D01*
X139406333Y-80922857D01*
X139453952Y-81113333D01*
X139453952Y-81351428D01*
X139406333Y-81541904D01*
X139358714Y-81637142D01*
X139311095Y-81684761D01*
X139215857Y-81732380D01*
X139120619Y-81732380D01*
X139025380Y-81684761D01*
X138977761Y-81637142D01*
X138930142Y-81541904D01*
X138882523Y-81351428D01*
X138882523Y-81113333D01*
X138930142Y-80922857D01*
X138977761Y-80827619D01*
X139025380Y-80780000D01*
X139120619Y-80732380D01*
X140073000Y-80732380D02*
X140168238Y-80732380D01*
X140263476Y-80780000D01*
X140311095Y-80827619D01*
X140358714Y-80922857D01*
X140406333Y-81113333D01*
X140406333Y-81351428D01*
X140358714Y-81541904D01*
X140311095Y-81637142D01*
X140263476Y-81684761D01*
X140168238Y-81732380D01*
X140073000Y-81732380D01*
X139977761Y-81684761D01*
X139930142Y-81637142D01*
X139882523Y-81541904D01*
X139834904Y-81351428D01*
X139834904Y-81113333D01*
X139882523Y-80922857D01*
X139930142Y-80827619D01*
X139977761Y-80780000D01*
X140073000Y-80732380D01*
X140834904Y-81732380D02*
X140834904Y-80732380D01*
X140930142Y-81351428D02*
X141215857Y-81732380D01*
X141215857Y-81065714D02*
X140834904Y-81446666D01*
X144089523Y-87828380D02*
X143613333Y-87828380D01*
X143613333Y-86828380D01*
X144422857Y-87828380D02*
X144422857Y-86828380D01*
X144660952Y-86828380D01*
X144803809Y-86876000D01*
X144899047Y-86971238D01*
X144946666Y-87066476D01*
X144994285Y-87256952D01*
X144994285Y-87399809D01*
X144946666Y-87590285D01*
X144899047Y-87685523D01*
X144803809Y-87780761D01*
X144660952Y-87828380D01*
X144422857Y-87828380D01*
X145994285Y-87828380D02*
X145660952Y-87352190D01*
X145422857Y-87828380D02*
X145422857Y-86828380D01*
X145803809Y-86828380D01*
X145899047Y-86876000D01*
X145946666Y-86923619D01*
X145994285Y-87018857D01*
X145994285Y-87161714D01*
X145946666Y-87256952D01*
X145899047Y-87304571D01*
X145803809Y-87352190D01*
X145422857Y-87352190D01*
X132310476Y-86828380D02*
X132881904Y-86828380D01*
X132596190Y-87828380D02*
X132596190Y-86828380D01*
X133215238Y-87828380D02*
X133215238Y-86828380D01*
X133548571Y-87542666D01*
X133881904Y-86828380D01*
X133881904Y-87828380D01*
X134358095Y-87828380D02*
X134358095Y-86828380D01*
X134739047Y-86828380D01*
X134834285Y-86876000D01*
X134881904Y-86923619D01*
X134929523Y-87018857D01*
X134929523Y-87161714D01*
X134881904Y-87256952D01*
X134834285Y-87304571D01*
X134739047Y-87352190D01*
X134358095Y-87352190D01*
X135262857Y-86828380D02*
X135881904Y-86828380D01*
X135548571Y-87209333D01*
X135691428Y-87209333D01*
X135786666Y-87256952D01*
X135834285Y-87304571D01*
X135881904Y-87399809D01*
X135881904Y-87637904D01*
X135834285Y-87733142D01*
X135786666Y-87780761D01*
X135691428Y-87828380D01*
X135405714Y-87828380D01*
X135310476Y-87780761D01*
X135262857Y-87733142D01*
X136739047Y-86828380D02*
X136548571Y-86828380D01*
X136453333Y-86876000D01*
X136405714Y-86923619D01*
X136310476Y-87066476D01*
X136262857Y-87256952D01*
X136262857Y-87637904D01*
X136310476Y-87733142D01*
X136358095Y-87780761D01*
X136453333Y-87828380D01*
X136643809Y-87828380D01*
X136739047Y-87780761D01*
X136786666Y-87733142D01*
X136834285Y-87637904D01*
X136834285Y-87399809D01*
X136786666Y-87304571D01*
X136739047Y-87256952D01*
X136643809Y-87209333D01*
X136453333Y-87209333D01*
X136358095Y-87256952D01*
X136310476Y-87304571D01*
X136262857Y-87399809D01*
D11*
%TO.C,R1*%
X146930000Y-81865000D02*
X146930000Y-84515000D01*
X142630000Y-81865000D02*
X142630000Y-84515000D01*
X142647856Y-84543027D02*
G75*
G03*
X146930000Y-84515000I2132144J1378027D01*
G01*
X146914388Y-81839524D02*
G75*
G03*
X142630000Y-81865000I-2134388J-1325476D01*
G01*
%TO.C,R2*%
X143740000Y-78740000D02*
X142970000Y-78740000D01*
X135660000Y-78740000D02*
X136430000Y-78740000D01*
X142970000Y-77370000D02*
X136430000Y-77370000D01*
X142970000Y-80110000D02*
X142970000Y-77370000D01*
X136430000Y-80110000D02*
X142970000Y-80110000D01*
X136430000Y-77370000D02*
X136430000Y-80110000D01*
%TO.C,U1*%
X136320000Y-85205000D02*
X136320000Y-81355000D01*
X136310122Y-81316389D02*
G75*
G03*
X136320000Y-85205000I-1690122J-1948611D01*
G01*
%TO.C,J3*%
X135830000Y-123885000D02*
X135830000Y-122555000D01*
X137160000Y-123885000D02*
X135830000Y-123885000D01*
X138430000Y-123885000D02*
X138430000Y-121225000D01*
X138430000Y-121225000D02*
X143570000Y-121225000D01*
X138430000Y-123885000D02*
X143570000Y-123885000D01*
X143570000Y-123885000D02*
X143570000Y-121225000D01*
%TD*%
M02*
