%TF.GenerationSoftware,KiCad,Pcbnew,5.1.8-db9833491~87~ubuntu20.04.1*%
%TF.CreationDate,2020-11-16T22:31:41-05:00*%
%TF.ProjectId,shield,73686965-6c64-42e6-9b69-6361645f7063,rev?*%
%TF.SameCoordinates,Original*%
%TF.FileFunction,Copper,L1,Top*%
%TF.FilePolarity,Positive*%
%FSLAX46Y46*%
G04 Gerber Fmt 4.6, Leading zero omitted, Abs format (unit mm)*
G04 Created by KiCad (PCBNEW 5.1.8-db9833491~87~ubuntu20.04.1) date 2020-11-16 22:31:41*
%MOMM*%
%LPD*%
G01*
G04 APERTURE LIST*
%TA.AperFunction,ComponentPad*%
%ADD10R,1.700000X1.700000*%
%TD*%
%TA.AperFunction,ComponentPad*%
%ADD11O,1.700000X1.700000*%
%TD*%
%TA.AperFunction,ComponentPad*%
%ADD12C,1.600000*%
%TD*%
%TA.AperFunction,ComponentPad*%
%ADD13O,1.600000X1.600000*%
%TD*%
%TA.AperFunction,ComponentPad*%
%ADD14R,1.500000X1.050000*%
%TD*%
%TA.AperFunction,ComponentPad*%
%ADD15O,1.500000X1.050000*%
%TD*%
%TA.AperFunction,ViaPad*%
%ADD16C,0.800000*%
%TD*%
%TA.AperFunction,Conductor*%
%ADD17C,0.250000*%
%TD*%
%TA.AperFunction,Conductor*%
%ADD18C,0.254000*%
%TD*%
%TA.AperFunction,Conductor*%
%ADD19C,0.100000*%
%TD*%
G04 APERTURE END LIST*
D10*
%TO.P,J1,1*%
%TO.N,36*%
X151257000Y-78105000D03*
D11*
%TO.P,J1,2*%
%TO.N,37*%
X151257000Y-80645000D03*
%TO.P,J1,3*%
%TO.N,38*%
X151257000Y-83185000D03*
%TO.P,J1,4*%
%TO.N,39*%
X151257000Y-85725000D03*
%TO.P,J1,5*%
%TO.N,32*%
X151257000Y-88265000D03*
%TO.P,J1,6*%
%TO.N,33*%
X151257000Y-90805000D03*
%TO.P,J1,7*%
%TO.N,34*%
X151257000Y-93345000D03*
%TO.P,J1,8*%
%TO.N,35*%
X151257000Y-95885000D03*
%TO.P,J1,9*%
%TO.N,25*%
X151257000Y-98425000D03*
%TO.P,J1,10*%
%TO.N,26*%
X151257000Y-100965000D03*
%TO.P,J1,11*%
%TO.N,27*%
X151257000Y-103505000D03*
%TO.P,J1,12*%
%TO.N,14*%
X151257000Y-106045000D03*
%TO.P,J1,13*%
%TO.N,12*%
X151257000Y-108585000D03*
%TO.P,J1,14*%
%TO.N,13*%
X151257000Y-111125000D03*
%TO.P,J1,15*%
%TO.N,RST*%
X151257000Y-113665000D03*
%TO.P,J1,16*%
%TO.N,3V3-L*%
X151257000Y-116205000D03*
%TO.P,J1,17*%
%TO.N,GND*%
X151257000Y-118745000D03*
%TO.P,J1,18*%
%TO.N,VBAT-L*%
X151257000Y-121285000D03*
%TO.P,J1,19*%
%TO.N,VUSB-L*%
X151257000Y-123825000D03*
%TO.P,J1,20*%
%TO.N,GND*%
X151257000Y-126365000D03*
%TD*%
%TO.P,J2,20*%
%TO.N,GND*%
X128143000Y-126365000D03*
%TO.P,J2,19*%
%TO.N,VUSB-R*%
X128143000Y-123825000D03*
%TO.P,J2,18*%
%TO.N,VBAT-R*%
X128143000Y-121285000D03*
%TO.P,J2,17*%
%TO.N,GND*%
X128143000Y-118745000D03*
%TO.P,J2,16*%
%TO.N,3V3-R*%
X128143000Y-116205000D03*
%TO.P,J2,15*%
%TO.N,16*%
X128143000Y-113665000D03*
%TO.P,J2,14*%
%TO.N,17*%
X128143000Y-111125000D03*
%TO.P,J2,13*%
%TO.N,4*%
X128143000Y-108585000D03*
%TO.P,J2,12*%
%TO.N,0*%
X128143000Y-106045000D03*
%TO.P,J2,11*%
%TO.N,2*%
X128143000Y-103505000D03*
%TO.P,J2,10*%
%TO.N,15*%
X128143000Y-100965000D03*
%TO.P,J2,9*%
%TO.N,5*%
X128143000Y-98425000D03*
%TO.P,J2,8*%
%TO.N,18*%
X128143000Y-95885000D03*
%TO.P,J2,7*%
%TO.N,23*%
X128143000Y-93345000D03*
%TO.P,J2,6*%
%TO.N,19*%
X128143000Y-90805000D03*
%TO.P,J2,5*%
%TO.N,22*%
X128143000Y-88265000D03*
%TO.P,J2,4*%
%TO.N,RX*%
X128143000Y-85725000D03*
%TO.P,J2,3*%
%TO.N,TX*%
X128143000Y-83185000D03*
%TO.P,J2,2*%
%TO.N,21*%
X128143000Y-80645000D03*
D10*
%TO.P,J2,1*%
%TO.N,GND*%
X128143000Y-78105000D03*
%TD*%
D12*
%TO.P,R1,2*%
%TO.N,3V3-L*%
X144780000Y-84455000D03*
%TO.P,R1,1*%
%TO.N,36*%
X144780000Y-81915000D03*
%TD*%
D13*
%TO.P,R2,2*%
%TO.N,36*%
X144780000Y-78740000D03*
D12*
%TO.P,R2,1*%
%TO.N,GND*%
X134620000Y-78740000D03*
%TD*%
D14*
%TO.P,U1,1*%
%TO.N,3V3-R*%
X134620000Y-84455000D03*
D15*
%TO.P,U1,3*%
%TO.N,GND*%
X134620000Y-81915000D03*
%TO.P,U1,2*%
%TO.N,38*%
X134620000Y-83185000D03*
%TD*%
D10*
%TO.P,J3,1*%
%TO.N,37*%
X137160000Y-122555000D03*
D11*
%TO.P,J3,2*%
%TO.N,3V3-R*%
X139700000Y-122555000D03*
%TO.P,J3,3*%
%TO.N,GND*%
X142240000Y-122555000D03*
%TD*%
D16*
%TO.N,38*%
X147320000Y-83185000D03*
%TD*%
D17*
%TO.N,36*%
X144780000Y-78740000D02*
X147320000Y-78740000D01*
X147955000Y-78105000D02*
X151257000Y-78105000D01*
X147320000Y-78740000D02*
X147955000Y-78105000D01*
%TO.N,37*%
X151257000Y-80645000D02*
X150495000Y-80645000D01*
%TO.N,38*%
X147320000Y-83185000D02*
X151257000Y-83185000D01*
%TO.N,3V3-L*%
X146050000Y-116205000D02*
X151257000Y-116205000D01*
X144780000Y-114935000D02*
X146050000Y-116205000D01*
X144780000Y-84455000D02*
X144780000Y-114935000D01*
%TO.N,3V3-R*%
X134620000Y-84455000D02*
X134620000Y-116205000D01*
X139700000Y-117475000D02*
X139700000Y-122610000D01*
X138430000Y-116205000D02*
X139700000Y-117475000D01*
X128143000Y-116205000D02*
X138430000Y-116205000D01*
%TD*%
D18*
%TO.N,GND*%
X149876463Y-76900506D02*
X149817498Y-77010820D01*
X149781188Y-77130518D01*
X149768928Y-77255000D01*
X149768928Y-77345000D01*
X147992333Y-77345000D01*
X147955000Y-77341323D01*
X147917667Y-77345000D01*
X147806014Y-77355997D01*
X147662753Y-77399454D01*
X147530724Y-77470026D01*
X147414999Y-77564999D01*
X147391200Y-77593998D01*
X147005199Y-77980000D01*
X145998043Y-77980000D01*
X145894637Y-77825241D01*
X145694759Y-77625363D01*
X145459727Y-77468320D01*
X145198574Y-77360147D01*
X144921335Y-77305000D01*
X144638665Y-77305000D01*
X144361426Y-77360147D01*
X144100273Y-77468320D01*
X143865241Y-77625363D01*
X143665363Y-77825241D01*
X143508320Y-78060273D01*
X143400147Y-78321426D01*
X143345000Y-78598665D01*
X143345000Y-78881335D01*
X143400147Y-79158574D01*
X143508320Y-79419727D01*
X143665363Y-79654759D01*
X143865241Y-79854637D01*
X144100273Y-80011680D01*
X144361426Y-80119853D01*
X144638665Y-80175000D01*
X144921335Y-80175000D01*
X145198574Y-80119853D01*
X145459727Y-80011680D01*
X145694759Y-79854637D01*
X145894637Y-79654759D01*
X145998043Y-79500000D01*
X147282678Y-79500000D01*
X147320000Y-79503676D01*
X147357322Y-79500000D01*
X147357333Y-79500000D01*
X147468986Y-79489003D01*
X147612247Y-79445546D01*
X147744276Y-79374974D01*
X147860001Y-79280001D01*
X147883803Y-79250998D01*
X148269802Y-78865000D01*
X149768928Y-78865000D01*
X149768928Y-78955000D01*
X149781188Y-79079482D01*
X149817498Y-79199180D01*
X149876463Y-79309494D01*
X149955815Y-79406185D01*
X150052506Y-79485537D01*
X150162820Y-79544502D01*
X150235380Y-79566513D01*
X150103525Y-79698368D01*
X149941010Y-79941589D01*
X149829068Y-80211842D01*
X149807905Y-80318234D01*
X149789454Y-80352753D01*
X149745997Y-80496014D01*
X149731323Y-80645000D01*
X149745997Y-80793986D01*
X149789454Y-80937247D01*
X149807905Y-80971766D01*
X149829068Y-81078158D01*
X149941010Y-81348411D01*
X150103525Y-81591632D01*
X150310368Y-81798475D01*
X150484760Y-81915000D01*
X150310368Y-82031525D01*
X150103525Y-82238368D01*
X149978822Y-82425000D01*
X148023711Y-82425000D01*
X147979774Y-82381063D01*
X147810256Y-82267795D01*
X147621898Y-82189774D01*
X147421939Y-82150000D01*
X147218061Y-82150000D01*
X147018102Y-82189774D01*
X146829744Y-82267795D01*
X146660226Y-82381063D01*
X146516063Y-82525226D01*
X146402795Y-82694744D01*
X146324774Y-82883102D01*
X146285000Y-83083061D01*
X146285000Y-83286939D01*
X146324774Y-83486898D01*
X146402795Y-83675256D01*
X146516063Y-83844774D01*
X146660226Y-83988937D01*
X146829744Y-84102205D01*
X147018102Y-84180226D01*
X147218061Y-84220000D01*
X147421939Y-84220000D01*
X147621898Y-84180226D01*
X147810256Y-84102205D01*
X147979774Y-83988937D01*
X148023711Y-83945000D01*
X149978822Y-83945000D01*
X150103525Y-84131632D01*
X150310368Y-84338475D01*
X150484760Y-84455000D01*
X150310368Y-84571525D01*
X150103525Y-84778368D01*
X149941010Y-85021589D01*
X149829068Y-85291842D01*
X149772000Y-85578740D01*
X149772000Y-85871260D01*
X149829068Y-86158158D01*
X149941010Y-86428411D01*
X150103525Y-86671632D01*
X150310368Y-86878475D01*
X150484760Y-86995000D01*
X150310368Y-87111525D01*
X150103525Y-87318368D01*
X149941010Y-87561589D01*
X149829068Y-87831842D01*
X149772000Y-88118740D01*
X149772000Y-88411260D01*
X149829068Y-88698158D01*
X149941010Y-88968411D01*
X150103525Y-89211632D01*
X150310368Y-89418475D01*
X150484760Y-89535000D01*
X150310368Y-89651525D01*
X150103525Y-89858368D01*
X149941010Y-90101589D01*
X149829068Y-90371842D01*
X149772000Y-90658740D01*
X149772000Y-90951260D01*
X149829068Y-91238158D01*
X149941010Y-91508411D01*
X150103525Y-91751632D01*
X150310368Y-91958475D01*
X150484760Y-92075000D01*
X150310368Y-92191525D01*
X150103525Y-92398368D01*
X149941010Y-92641589D01*
X149829068Y-92911842D01*
X149772000Y-93198740D01*
X149772000Y-93491260D01*
X149829068Y-93778158D01*
X149941010Y-94048411D01*
X150103525Y-94291632D01*
X150310368Y-94498475D01*
X150484760Y-94615000D01*
X150310368Y-94731525D01*
X150103525Y-94938368D01*
X149941010Y-95181589D01*
X149829068Y-95451842D01*
X149772000Y-95738740D01*
X149772000Y-96031260D01*
X149829068Y-96318158D01*
X149941010Y-96588411D01*
X150103525Y-96831632D01*
X150310368Y-97038475D01*
X150484760Y-97155000D01*
X150310368Y-97271525D01*
X150103525Y-97478368D01*
X149941010Y-97721589D01*
X149829068Y-97991842D01*
X149772000Y-98278740D01*
X149772000Y-98571260D01*
X149829068Y-98858158D01*
X149941010Y-99128411D01*
X150103525Y-99371632D01*
X150310368Y-99578475D01*
X150484760Y-99695000D01*
X150310368Y-99811525D01*
X150103525Y-100018368D01*
X149941010Y-100261589D01*
X149829068Y-100531842D01*
X149772000Y-100818740D01*
X149772000Y-101111260D01*
X149829068Y-101398158D01*
X149941010Y-101668411D01*
X150103525Y-101911632D01*
X150310368Y-102118475D01*
X150484760Y-102235000D01*
X150310368Y-102351525D01*
X150103525Y-102558368D01*
X149941010Y-102801589D01*
X149829068Y-103071842D01*
X149772000Y-103358740D01*
X149772000Y-103651260D01*
X149829068Y-103938158D01*
X149941010Y-104208411D01*
X150103525Y-104451632D01*
X150310368Y-104658475D01*
X150484760Y-104775000D01*
X150310368Y-104891525D01*
X150103525Y-105098368D01*
X149941010Y-105341589D01*
X149829068Y-105611842D01*
X149772000Y-105898740D01*
X149772000Y-106191260D01*
X149829068Y-106478158D01*
X149941010Y-106748411D01*
X150103525Y-106991632D01*
X150310368Y-107198475D01*
X150484760Y-107315000D01*
X150310368Y-107431525D01*
X150103525Y-107638368D01*
X149941010Y-107881589D01*
X149829068Y-108151842D01*
X149772000Y-108438740D01*
X149772000Y-108731260D01*
X149829068Y-109018158D01*
X149941010Y-109288411D01*
X150103525Y-109531632D01*
X150310368Y-109738475D01*
X150484760Y-109855000D01*
X150310368Y-109971525D01*
X150103525Y-110178368D01*
X149941010Y-110421589D01*
X149829068Y-110691842D01*
X149772000Y-110978740D01*
X149772000Y-111271260D01*
X149829068Y-111558158D01*
X149941010Y-111828411D01*
X150103525Y-112071632D01*
X150310368Y-112278475D01*
X150484760Y-112395000D01*
X150310368Y-112511525D01*
X150103525Y-112718368D01*
X149941010Y-112961589D01*
X149829068Y-113231842D01*
X149772000Y-113518740D01*
X149772000Y-113811260D01*
X149829068Y-114098158D01*
X149941010Y-114368411D01*
X150103525Y-114611632D01*
X150310368Y-114818475D01*
X150484760Y-114935000D01*
X150310368Y-115051525D01*
X150103525Y-115258368D01*
X149978822Y-115445000D01*
X146364802Y-115445000D01*
X145540000Y-114620199D01*
X145540000Y-85673043D01*
X145694759Y-85569637D01*
X145894637Y-85369759D01*
X146051680Y-85134727D01*
X146159853Y-84873574D01*
X146215000Y-84596335D01*
X146215000Y-84313665D01*
X146159853Y-84036426D01*
X146051680Y-83775273D01*
X145894637Y-83540241D01*
X145694759Y-83340363D01*
X145462241Y-83185000D01*
X145694759Y-83029637D01*
X145894637Y-82829759D01*
X146051680Y-82594727D01*
X146159853Y-82333574D01*
X146215000Y-82056335D01*
X146215000Y-81773665D01*
X146159853Y-81496426D01*
X146051680Y-81235273D01*
X145894637Y-81000241D01*
X145694759Y-80800363D01*
X145459727Y-80643320D01*
X145198574Y-80535147D01*
X144921335Y-80480000D01*
X144638665Y-80480000D01*
X144361426Y-80535147D01*
X144100273Y-80643320D01*
X143865241Y-80800363D01*
X143665363Y-81000241D01*
X143508320Y-81235273D01*
X143400147Y-81496426D01*
X143345000Y-81773665D01*
X143345000Y-82056335D01*
X143400147Y-82333574D01*
X143508320Y-82594727D01*
X143665363Y-82829759D01*
X143865241Y-83029637D01*
X144097759Y-83185000D01*
X143865241Y-83340363D01*
X143665363Y-83540241D01*
X143508320Y-83775273D01*
X143400147Y-84036426D01*
X143345000Y-84313665D01*
X143345000Y-84596335D01*
X143400147Y-84873574D01*
X143508320Y-85134727D01*
X143665363Y-85369759D01*
X143865241Y-85569637D01*
X144020000Y-85673043D01*
X144020001Y-114897667D01*
X144016324Y-114935000D01*
X144030998Y-115083985D01*
X144074454Y-115227246D01*
X144145026Y-115359276D01*
X144212362Y-115441324D01*
X144240000Y-115475001D01*
X144268998Y-115498799D01*
X145486200Y-116716002D01*
X145509999Y-116745001D01*
X145625724Y-116839974D01*
X145757753Y-116910546D01*
X145901014Y-116954003D01*
X146012667Y-116965000D01*
X146012676Y-116965000D01*
X146049999Y-116968676D01*
X146087322Y-116965000D01*
X149978822Y-116965000D01*
X150103525Y-117151632D01*
X150310368Y-117358475D01*
X150492534Y-117480195D01*
X150375645Y-117549822D01*
X150159412Y-117744731D01*
X149985359Y-117978080D01*
X149860175Y-118240901D01*
X149815524Y-118388110D01*
X149936845Y-118618000D01*
X151130000Y-118618000D01*
X151130000Y-118598000D01*
X151384000Y-118598000D01*
X151384000Y-118618000D01*
X151404000Y-118618000D01*
X151404000Y-118872000D01*
X151384000Y-118872000D01*
X151384000Y-118892000D01*
X151130000Y-118892000D01*
X151130000Y-118872000D01*
X149936845Y-118872000D01*
X149815524Y-119101890D01*
X149860175Y-119249099D01*
X149985359Y-119511920D01*
X150159412Y-119745269D01*
X150375645Y-119940178D01*
X150492534Y-120009805D01*
X150310368Y-120131525D01*
X150103525Y-120338368D01*
X149941010Y-120581589D01*
X149829068Y-120851842D01*
X149772000Y-121138740D01*
X149772000Y-121431260D01*
X149829068Y-121718158D01*
X149941010Y-121988411D01*
X150103525Y-122231632D01*
X150310368Y-122438475D01*
X150484760Y-122555000D01*
X150310368Y-122671525D01*
X150103525Y-122878368D01*
X149941010Y-123121589D01*
X149829068Y-123391842D01*
X149772000Y-123678740D01*
X149772000Y-123971260D01*
X149829068Y-124258158D01*
X149941010Y-124528411D01*
X150103525Y-124771632D01*
X150310368Y-124978475D01*
X150492534Y-125100195D01*
X150375645Y-125169822D01*
X150159412Y-125364731D01*
X149985359Y-125598080D01*
X149860175Y-125860901D01*
X149815524Y-126008110D01*
X149936845Y-126238000D01*
X151130000Y-126238000D01*
X151130000Y-126218000D01*
X151384000Y-126218000D01*
X151384000Y-126238000D01*
X151404000Y-126238000D01*
X151404000Y-126492000D01*
X151384000Y-126492000D01*
X151384000Y-126512000D01*
X151130000Y-126512000D01*
X151130000Y-126492000D01*
X149936845Y-126492000D01*
X149815524Y-126721890D01*
X149860175Y-126869099D01*
X149985359Y-127131920D01*
X150159412Y-127365269D01*
X150375645Y-127560178D01*
X150459285Y-127610000D01*
X128940715Y-127610000D01*
X129024355Y-127560178D01*
X129240588Y-127365269D01*
X129414641Y-127131920D01*
X129539825Y-126869099D01*
X129584476Y-126721890D01*
X129463155Y-126492000D01*
X128270000Y-126492000D01*
X128270000Y-126512000D01*
X128016000Y-126512000D01*
X128016000Y-126492000D01*
X127996000Y-126492000D01*
X127996000Y-126238000D01*
X128016000Y-126238000D01*
X128016000Y-126218000D01*
X128270000Y-126218000D01*
X128270000Y-126238000D01*
X129463155Y-126238000D01*
X129584476Y-126008110D01*
X129539825Y-125860901D01*
X129414641Y-125598080D01*
X129240588Y-125364731D01*
X129024355Y-125169822D01*
X128907466Y-125100195D01*
X129089632Y-124978475D01*
X129296475Y-124771632D01*
X129458990Y-124528411D01*
X129570932Y-124258158D01*
X129628000Y-123971260D01*
X129628000Y-123678740D01*
X129570932Y-123391842D01*
X129458990Y-123121589D01*
X129296475Y-122878368D01*
X129089632Y-122671525D01*
X128915240Y-122555000D01*
X129089632Y-122438475D01*
X129296475Y-122231632D01*
X129458990Y-121988411D01*
X129570932Y-121718158D01*
X129628000Y-121431260D01*
X129628000Y-121138740D01*
X129570932Y-120851842D01*
X129458990Y-120581589D01*
X129296475Y-120338368D01*
X129089632Y-120131525D01*
X128907466Y-120009805D01*
X129024355Y-119940178D01*
X129240588Y-119745269D01*
X129414641Y-119511920D01*
X129539825Y-119249099D01*
X129584476Y-119101890D01*
X129463155Y-118872000D01*
X128270000Y-118872000D01*
X128270000Y-118892000D01*
X128016000Y-118892000D01*
X128016000Y-118872000D01*
X127996000Y-118872000D01*
X127996000Y-118618000D01*
X128016000Y-118618000D01*
X128016000Y-118598000D01*
X128270000Y-118598000D01*
X128270000Y-118618000D01*
X129463155Y-118618000D01*
X129584476Y-118388110D01*
X129539825Y-118240901D01*
X129414641Y-117978080D01*
X129240588Y-117744731D01*
X129024355Y-117549822D01*
X128907466Y-117480195D01*
X129089632Y-117358475D01*
X129296475Y-117151632D01*
X129421178Y-116965000D01*
X134582667Y-116965000D01*
X134620000Y-116968677D01*
X134657333Y-116965000D01*
X138115199Y-116965000D01*
X138940000Y-117789802D01*
X138940001Y-121276821D01*
X138753368Y-121401525D01*
X138621513Y-121533380D01*
X138599502Y-121460820D01*
X138540537Y-121350506D01*
X138461185Y-121253815D01*
X138364494Y-121174463D01*
X138254180Y-121115498D01*
X138134482Y-121079188D01*
X138010000Y-121066928D01*
X136310000Y-121066928D01*
X136185518Y-121079188D01*
X136065820Y-121115498D01*
X135955506Y-121174463D01*
X135858815Y-121253815D01*
X135779463Y-121350506D01*
X135720498Y-121460820D01*
X135684188Y-121580518D01*
X135671928Y-121705000D01*
X135671928Y-123405000D01*
X135684188Y-123529482D01*
X135720498Y-123649180D01*
X135779463Y-123759494D01*
X135858815Y-123856185D01*
X135955506Y-123935537D01*
X136065820Y-123994502D01*
X136185518Y-124030812D01*
X136310000Y-124043072D01*
X138010000Y-124043072D01*
X138134482Y-124030812D01*
X138254180Y-123994502D01*
X138364494Y-123935537D01*
X138461185Y-123856185D01*
X138540537Y-123759494D01*
X138599502Y-123649180D01*
X138621513Y-123576620D01*
X138753368Y-123708475D01*
X138996589Y-123870990D01*
X139266842Y-123982932D01*
X139553740Y-124040000D01*
X139846260Y-124040000D01*
X140133158Y-123982932D01*
X140403411Y-123870990D01*
X140646632Y-123708475D01*
X140853475Y-123501632D01*
X140975195Y-123319466D01*
X141044822Y-123436355D01*
X141239731Y-123652588D01*
X141473080Y-123826641D01*
X141735901Y-123951825D01*
X141883110Y-123996476D01*
X142113000Y-123875155D01*
X142113000Y-122682000D01*
X142367000Y-122682000D01*
X142367000Y-123875155D01*
X142596890Y-123996476D01*
X142744099Y-123951825D01*
X143006920Y-123826641D01*
X143240269Y-123652588D01*
X143435178Y-123436355D01*
X143584157Y-123186252D01*
X143681481Y-122911891D01*
X143560814Y-122682000D01*
X142367000Y-122682000D01*
X142113000Y-122682000D01*
X142093000Y-122682000D01*
X142093000Y-122428000D01*
X142113000Y-122428000D01*
X142113000Y-121234845D01*
X142367000Y-121234845D01*
X142367000Y-122428000D01*
X143560814Y-122428000D01*
X143681481Y-122198109D01*
X143584157Y-121923748D01*
X143435178Y-121673645D01*
X143240269Y-121457412D01*
X143006920Y-121283359D01*
X142744099Y-121158175D01*
X142596890Y-121113524D01*
X142367000Y-121234845D01*
X142113000Y-121234845D01*
X141883110Y-121113524D01*
X141735901Y-121158175D01*
X141473080Y-121283359D01*
X141239731Y-121457412D01*
X141044822Y-121673645D01*
X140975195Y-121790534D01*
X140853475Y-121608368D01*
X140646632Y-121401525D01*
X140460000Y-121276822D01*
X140460000Y-117512322D01*
X140463676Y-117474999D01*
X140460000Y-117437676D01*
X140460000Y-117437667D01*
X140449003Y-117326014D01*
X140405546Y-117182753D01*
X140334974Y-117050724D01*
X140240001Y-116934999D01*
X140211004Y-116911202D01*
X138993804Y-115694003D01*
X138970001Y-115664999D01*
X138854276Y-115570026D01*
X138722247Y-115499454D01*
X138578986Y-115455997D01*
X138467333Y-115445000D01*
X138467322Y-115445000D01*
X138430000Y-115441324D01*
X138392678Y-115445000D01*
X135380000Y-115445000D01*
X135380000Y-85617087D01*
X135494482Y-85605812D01*
X135614180Y-85569502D01*
X135724494Y-85510537D01*
X135821185Y-85431185D01*
X135900537Y-85334494D01*
X135959502Y-85224180D01*
X135995812Y-85104482D01*
X136008072Y-84980000D01*
X136008072Y-83930000D01*
X135995812Y-83805518D01*
X135959502Y-83685820D01*
X135924907Y-83621098D01*
X135988215Y-83412400D01*
X136010612Y-83185000D01*
X135988215Y-82957600D01*
X135921885Y-82738940D01*
X135821071Y-82550331D01*
X135862275Y-82491882D01*
X135955272Y-82282337D01*
X135963964Y-82220810D01*
X135838163Y-82042000D01*
X135073109Y-82042000D01*
X135072400Y-82041785D01*
X134901979Y-82025000D01*
X134338021Y-82025000D01*
X134167600Y-82041785D01*
X134166891Y-82042000D01*
X133401837Y-82042000D01*
X133276036Y-82220810D01*
X133284728Y-82282337D01*
X133377725Y-82491882D01*
X133418929Y-82550331D01*
X133318115Y-82738940D01*
X133251785Y-82957600D01*
X133229388Y-83185000D01*
X133251785Y-83412400D01*
X133315093Y-83621098D01*
X133280498Y-83685820D01*
X133244188Y-83805518D01*
X133231928Y-83930000D01*
X133231928Y-84980000D01*
X133244188Y-85104482D01*
X133280498Y-85224180D01*
X133339463Y-85334494D01*
X133418815Y-85431185D01*
X133515506Y-85510537D01*
X133625820Y-85569502D01*
X133745518Y-85605812D01*
X133860000Y-85617087D01*
X133860001Y-115445000D01*
X129421178Y-115445000D01*
X129296475Y-115258368D01*
X129089632Y-115051525D01*
X128915240Y-114935000D01*
X129089632Y-114818475D01*
X129296475Y-114611632D01*
X129458990Y-114368411D01*
X129570932Y-114098158D01*
X129628000Y-113811260D01*
X129628000Y-113518740D01*
X129570932Y-113231842D01*
X129458990Y-112961589D01*
X129296475Y-112718368D01*
X129089632Y-112511525D01*
X128915240Y-112395000D01*
X129089632Y-112278475D01*
X129296475Y-112071632D01*
X129458990Y-111828411D01*
X129570932Y-111558158D01*
X129628000Y-111271260D01*
X129628000Y-110978740D01*
X129570932Y-110691842D01*
X129458990Y-110421589D01*
X129296475Y-110178368D01*
X129089632Y-109971525D01*
X128915240Y-109855000D01*
X129089632Y-109738475D01*
X129296475Y-109531632D01*
X129458990Y-109288411D01*
X129570932Y-109018158D01*
X129628000Y-108731260D01*
X129628000Y-108438740D01*
X129570932Y-108151842D01*
X129458990Y-107881589D01*
X129296475Y-107638368D01*
X129089632Y-107431525D01*
X128915240Y-107315000D01*
X129089632Y-107198475D01*
X129296475Y-106991632D01*
X129458990Y-106748411D01*
X129570932Y-106478158D01*
X129628000Y-106191260D01*
X129628000Y-105898740D01*
X129570932Y-105611842D01*
X129458990Y-105341589D01*
X129296475Y-105098368D01*
X129089632Y-104891525D01*
X128915240Y-104775000D01*
X129089632Y-104658475D01*
X129296475Y-104451632D01*
X129458990Y-104208411D01*
X129570932Y-103938158D01*
X129628000Y-103651260D01*
X129628000Y-103358740D01*
X129570932Y-103071842D01*
X129458990Y-102801589D01*
X129296475Y-102558368D01*
X129089632Y-102351525D01*
X128915240Y-102235000D01*
X129089632Y-102118475D01*
X129296475Y-101911632D01*
X129458990Y-101668411D01*
X129570932Y-101398158D01*
X129628000Y-101111260D01*
X129628000Y-100818740D01*
X129570932Y-100531842D01*
X129458990Y-100261589D01*
X129296475Y-100018368D01*
X129089632Y-99811525D01*
X128915240Y-99695000D01*
X129089632Y-99578475D01*
X129296475Y-99371632D01*
X129458990Y-99128411D01*
X129570932Y-98858158D01*
X129628000Y-98571260D01*
X129628000Y-98278740D01*
X129570932Y-97991842D01*
X129458990Y-97721589D01*
X129296475Y-97478368D01*
X129089632Y-97271525D01*
X128915240Y-97155000D01*
X129089632Y-97038475D01*
X129296475Y-96831632D01*
X129458990Y-96588411D01*
X129570932Y-96318158D01*
X129628000Y-96031260D01*
X129628000Y-95738740D01*
X129570932Y-95451842D01*
X129458990Y-95181589D01*
X129296475Y-94938368D01*
X129089632Y-94731525D01*
X128915240Y-94615000D01*
X129089632Y-94498475D01*
X129296475Y-94291632D01*
X129458990Y-94048411D01*
X129570932Y-93778158D01*
X129628000Y-93491260D01*
X129628000Y-93198740D01*
X129570932Y-92911842D01*
X129458990Y-92641589D01*
X129296475Y-92398368D01*
X129089632Y-92191525D01*
X128915240Y-92075000D01*
X129089632Y-91958475D01*
X129296475Y-91751632D01*
X129458990Y-91508411D01*
X129570932Y-91238158D01*
X129628000Y-90951260D01*
X129628000Y-90658740D01*
X129570932Y-90371842D01*
X129458990Y-90101589D01*
X129296475Y-89858368D01*
X129089632Y-89651525D01*
X128915240Y-89535000D01*
X129089632Y-89418475D01*
X129296475Y-89211632D01*
X129458990Y-88968411D01*
X129570932Y-88698158D01*
X129628000Y-88411260D01*
X129628000Y-88118740D01*
X129570932Y-87831842D01*
X129458990Y-87561589D01*
X129296475Y-87318368D01*
X129089632Y-87111525D01*
X128915240Y-86995000D01*
X129089632Y-86878475D01*
X129296475Y-86671632D01*
X129458990Y-86428411D01*
X129570932Y-86158158D01*
X129628000Y-85871260D01*
X129628000Y-85578740D01*
X129570932Y-85291842D01*
X129458990Y-85021589D01*
X129296475Y-84778368D01*
X129089632Y-84571525D01*
X128915240Y-84455000D01*
X129089632Y-84338475D01*
X129296475Y-84131632D01*
X129458990Y-83888411D01*
X129570932Y-83618158D01*
X129628000Y-83331260D01*
X129628000Y-83038740D01*
X129570932Y-82751842D01*
X129458990Y-82481589D01*
X129296475Y-82238368D01*
X129089632Y-82031525D01*
X128915240Y-81915000D01*
X129089632Y-81798475D01*
X129278917Y-81609190D01*
X133276036Y-81609190D01*
X133401837Y-81788000D01*
X134493000Y-81788000D01*
X134493000Y-80908402D01*
X134747000Y-80908402D01*
X134747000Y-81788000D01*
X135838163Y-81788000D01*
X135963964Y-81609190D01*
X135955272Y-81547663D01*
X135862275Y-81338118D01*
X135730184Y-81150742D01*
X135564076Y-80992736D01*
X135370334Y-80870172D01*
X135156404Y-80787761D01*
X134930507Y-80748669D01*
X134747000Y-80908402D01*
X134493000Y-80908402D01*
X134309493Y-80748669D01*
X134083596Y-80787761D01*
X133869666Y-80870172D01*
X133675924Y-80992736D01*
X133509816Y-81150742D01*
X133377725Y-81338118D01*
X133284728Y-81547663D01*
X133276036Y-81609190D01*
X129278917Y-81609190D01*
X129296475Y-81591632D01*
X129458990Y-81348411D01*
X129570932Y-81078158D01*
X129628000Y-80791260D01*
X129628000Y-80498740D01*
X129570932Y-80211842D01*
X129458990Y-79941589D01*
X129319417Y-79732702D01*
X133806903Y-79732702D01*
X133878486Y-79976671D01*
X134133996Y-80097571D01*
X134408184Y-80166300D01*
X134690512Y-80180217D01*
X134970130Y-80138787D01*
X135236292Y-80043603D01*
X135361514Y-79976671D01*
X135433097Y-79732702D01*
X134620000Y-78919605D01*
X133806903Y-79732702D01*
X129319417Y-79732702D01*
X129296475Y-79698368D01*
X129164620Y-79566513D01*
X129237180Y-79544502D01*
X129347494Y-79485537D01*
X129444185Y-79406185D01*
X129523537Y-79309494D01*
X129582502Y-79199180D01*
X129618812Y-79079482D01*
X129631072Y-78955000D01*
X129630286Y-78810512D01*
X133179783Y-78810512D01*
X133221213Y-79090130D01*
X133316397Y-79356292D01*
X133383329Y-79481514D01*
X133627298Y-79553097D01*
X134440395Y-78740000D01*
X134799605Y-78740000D01*
X135612702Y-79553097D01*
X135856671Y-79481514D01*
X135977571Y-79226004D01*
X136046300Y-78951816D01*
X136060217Y-78669488D01*
X136018787Y-78389870D01*
X135923603Y-78123708D01*
X135856671Y-77998486D01*
X135612702Y-77926903D01*
X134799605Y-78740000D01*
X134440395Y-78740000D01*
X133627298Y-77926903D01*
X133383329Y-77998486D01*
X133262429Y-78253996D01*
X133193700Y-78528184D01*
X133179783Y-78810512D01*
X129630286Y-78810512D01*
X129628000Y-78390750D01*
X129469250Y-78232000D01*
X128270000Y-78232000D01*
X128270000Y-78252000D01*
X128016000Y-78252000D01*
X128016000Y-78232000D01*
X127996000Y-78232000D01*
X127996000Y-77978000D01*
X128016000Y-77978000D01*
X128016000Y-77958000D01*
X128270000Y-77958000D01*
X128270000Y-77978000D01*
X129469250Y-77978000D01*
X129628000Y-77819250D01*
X129628391Y-77747298D01*
X133806903Y-77747298D01*
X134620000Y-78560395D01*
X135433097Y-77747298D01*
X135361514Y-77503329D01*
X135106004Y-77382429D01*
X134831816Y-77313700D01*
X134549488Y-77299783D01*
X134269870Y-77341213D01*
X134003708Y-77436397D01*
X133878486Y-77503329D01*
X133806903Y-77747298D01*
X129628391Y-77747298D01*
X129631072Y-77255000D01*
X129618812Y-77130518D01*
X129582502Y-77010820D01*
X129523537Y-76900506D01*
X129490295Y-76860000D01*
X149909705Y-76860000D01*
X149876463Y-76900506D01*
%TA.AperFunction,Conductor*%
D19*
G36*
X149876463Y-76900506D02*
G01*
X149817498Y-77010820D01*
X149781188Y-77130518D01*
X149768928Y-77255000D01*
X149768928Y-77345000D01*
X147992333Y-77345000D01*
X147955000Y-77341323D01*
X147917667Y-77345000D01*
X147806014Y-77355997D01*
X147662753Y-77399454D01*
X147530724Y-77470026D01*
X147414999Y-77564999D01*
X147391200Y-77593998D01*
X147005199Y-77980000D01*
X145998043Y-77980000D01*
X145894637Y-77825241D01*
X145694759Y-77625363D01*
X145459727Y-77468320D01*
X145198574Y-77360147D01*
X144921335Y-77305000D01*
X144638665Y-77305000D01*
X144361426Y-77360147D01*
X144100273Y-77468320D01*
X143865241Y-77625363D01*
X143665363Y-77825241D01*
X143508320Y-78060273D01*
X143400147Y-78321426D01*
X143345000Y-78598665D01*
X143345000Y-78881335D01*
X143400147Y-79158574D01*
X143508320Y-79419727D01*
X143665363Y-79654759D01*
X143865241Y-79854637D01*
X144100273Y-80011680D01*
X144361426Y-80119853D01*
X144638665Y-80175000D01*
X144921335Y-80175000D01*
X145198574Y-80119853D01*
X145459727Y-80011680D01*
X145694759Y-79854637D01*
X145894637Y-79654759D01*
X145998043Y-79500000D01*
X147282678Y-79500000D01*
X147320000Y-79503676D01*
X147357322Y-79500000D01*
X147357333Y-79500000D01*
X147468986Y-79489003D01*
X147612247Y-79445546D01*
X147744276Y-79374974D01*
X147860001Y-79280001D01*
X147883803Y-79250998D01*
X148269802Y-78865000D01*
X149768928Y-78865000D01*
X149768928Y-78955000D01*
X149781188Y-79079482D01*
X149817498Y-79199180D01*
X149876463Y-79309494D01*
X149955815Y-79406185D01*
X150052506Y-79485537D01*
X150162820Y-79544502D01*
X150235380Y-79566513D01*
X150103525Y-79698368D01*
X149941010Y-79941589D01*
X149829068Y-80211842D01*
X149807905Y-80318234D01*
X149789454Y-80352753D01*
X149745997Y-80496014D01*
X149731323Y-80645000D01*
X149745997Y-80793986D01*
X149789454Y-80937247D01*
X149807905Y-80971766D01*
X149829068Y-81078158D01*
X149941010Y-81348411D01*
X150103525Y-81591632D01*
X150310368Y-81798475D01*
X150484760Y-81915000D01*
X150310368Y-82031525D01*
X150103525Y-82238368D01*
X149978822Y-82425000D01*
X148023711Y-82425000D01*
X147979774Y-82381063D01*
X147810256Y-82267795D01*
X147621898Y-82189774D01*
X147421939Y-82150000D01*
X147218061Y-82150000D01*
X147018102Y-82189774D01*
X146829744Y-82267795D01*
X146660226Y-82381063D01*
X146516063Y-82525226D01*
X146402795Y-82694744D01*
X146324774Y-82883102D01*
X146285000Y-83083061D01*
X146285000Y-83286939D01*
X146324774Y-83486898D01*
X146402795Y-83675256D01*
X146516063Y-83844774D01*
X146660226Y-83988937D01*
X146829744Y-84102205D01*
X147018102Y-84180226D01*
X147218061Y-84220000D01*
X147421939Y-84220000D01*
X147621898Y-84180226D01*
X147810256Y-84102205D01*
X147979774Y-83988937D01*
X148023711Y-83945000D01*
X149978822Y-83945000D01*
X150103525Y-84131632D01*
X150310368Y-84338475D01*
X150484760Y-84455000D01*
X150310368Y-84571525D01*
X150103525Y-84778368D01*
X149941010Y-85021589D01*
X149829068Y-85291842D01*
X149772000Y-85578740D01*
X149772000Y-85871260D01*
X149829068Y-86158158D01*
X149941010Y-86428411D01*
X150103525Y-86671632D01*
X150310368Y-86878475D01*
X150484760Y-86995000D01*
X150310368Y-87111525D01*
X150103525Y-87318368D01*
X149941010Y-87561589D01*
X149829068Y-87831842D01*
X149772000Y-88118740D01*
X149772000Y-88411260D01*
X149829068Y-88698158D01*
X149941010Y-88968411D01*
X150103525Y-89211632D01*
X150310368Y-89418475D01*
X150484760Y-89535000D01*
X150310368Y-89651525D01*
X150103525Y-89858368D01*
X149941010Y-90101589D01*
X149829068Y-90371842D01*
X149772000Y-90658740D01*
X149772000Y-90951260D01*
X149829068Y-91238158D01*
X149941010Y-91508411D01*
X150103525Y-91751632D01*
X150310368Y-91958475D01*
X150484760Y-92075000D01*
X150310368Y-92191525D01*
X150103525Y-92398368D01*
X149941010Y-92641589D01*
X149829068Y-92911842D01*
X149772000Y-93198740D01*
X149772000Y-93491260D01*
X149829068Y-93778158D01*
X149941010Y-94048411D01*
X150103525Y-94291632D01*
X150310368Y-94498475D01*
X150484760Y-94615000D01*
X150310368Y-94731525D01*
X150103525Y-94938368D01*
X149941010Y-95181589D01*
X149829068Y-95451842D01*
X149772000Y-95738740D01*
X149772000Y-96031260D01*
X149829068Y-96318158D01*
X149941010Y-96588411D01*
X150103525Y-96831632D01*
X150310368Y-97038475D01*
X150484760Y-97155000D01*
X150310368Y-97271525D01*
X150103525Y-97478368D01*
X149941010Y-97721589D01*
X149829068Y-97991842D01*
X149772000Y-98278740D01*
X149772000Y-98571260D01*
X149829068Y-98858158D01*
X149941010Y-99128411D01*
X150103525Y-99371632D01*
X150310368Y-99578475D01*
X150484760Y-99695000D01*
X150310368Y-99811525D01*
X150103525Y-100018368D01*
X149941010Y-100261589D01*
X149829068Y-100531842D01*
X149772000Y-100818740D01*
X149772000Y-101111260D01*
X149829068Y-101398158D01*
X149941010Y-101668411D01*
X150103525Y-101911632D01*
X150310368Y-102118475D01*
X150484760Y-102235000D01*
X150310368Y-102351525D01*
X150103525Y-102558368D01*
X149941010Y-102801589D01*
X149829068Y-103071842D01*
X149772000Y-103358740D01*
X149772000Y-103651260D01*
X149829068Y-103938158D01*
X149941010Y-104208411D01*
X150103525Y-104451632D01*
X150310368Y-104658475D01*
X150484760Y-104775000D01*
X150310368Y-104891525D01*
X150103525Y-105098368D01*
X149941010Y-105341589D01*
X149829068Y-105611842D01*
X149772000Y-105898740D01*
X149772000Y-106191260D01*
X149829068Y-106478158D01*
X149941010Y-106748411D01*
X150103525Y-106991632D01*
X150310368Y-107198475D01*
X150484760Y-107315000D01*
X150310368Y-107431525D01*
X150103525Y-107638368D01*
X149941010Y-107881589D01*
X149829068Y-108151842D01*
X149772000Y-108438740D01*
X149772000Y-108731260D01*
X149829068Y-109018158D01*
X149941010Y-109288411D01*
X150103525Y-109531632D01*
X150310368Y-109738475D01*
X150484760Y-109855000D01*
X150310368Y-109971525D01*
X150103525Y-110178368D01*
X149941010Y-110421589D01*
X149829068Y-110691842D01*
X149772000Y-110978740D01*
X149772000Y-111271260D01*
X149829068Y-111558158D01*
X149941010Y-111828411D01*
X150103525Y-112071632D01*
X150310368Y-112278475D01*
X150484760Y-112395000D01*
X150310368Y-112511525D01*
X150103525Y-112718368D01*
X149941010Y-112961589D01*
X149829068Y-113231842D01*
X149772000Y-113518740D01*
X149772000Y-113811260D01*
X149829068Y-114098158D01*
X149941010Y-114368411D01*
X150103525Y-114611632D01*
X150310368Y-114818475D01*
X150484760Y-114935000D01*
X150310368Y-115051525D01*
X150103525Y-115258368D01*
X149978822Y-115445000D01*
X146364802Y-115445000D01*
X145540000Y-114620199D01*
X145540000Y-85673043D01*
X145694759Y-85569637D01*
X145894637Y-85369759D01*
X146051680Y-85134727D01*
X146159853Y-84873574D01*
X146215000Y-84596335D01*
X146215000Y-84313665D01*
X146159853Y-84036426D01*
X146051680Y-83775273D01*
X145894637Y-83540241D01*
X145694759Y-83340363D01*
X145462241Y-83185000D01*
X145694759Y-83029637D01*
X145894637Y-82829759D01*
X146051680Y-82594727D01*
X146159853Y-82333574D01*
X146215000Y-82056335D01*
X146215000Y-81773665D01*
X146159853Y-81496426D01*
X146051680Y-81235273D01*
X145894637Y-81000241D01*
X145694759Y-80800363D01*
X145459727Y-80643320D01*
X145198574Y-80535147D01*
X144921335Y-80480000D01*
X144638665Y-80480000D01*
X144361426Y-80535147D01*
X144100273Y-80643320D01*
X143865241Y-80800363D01*
X143665363Y-81000241D01*
X143508320Y-81235273D01*
X143400147Y-81496426D01*
X143345000Y-81773665D01*
X143345000Y-82056335D01*
X143400147Y-82333574D01*
X143508320Y-82594727D01*
X143665363Y-82829759D01*
X143865241Y-83029637D01*
X144097759Y-83185000D01*
X143865241Y-83340363D01*
X143665363Y-83540241D01*
X143508320Y-83775273D01*
X143400147Y-84036426D01*
X143345000Y-84313665D01*
X143345000Y-84596335D01*
X143400147Y-84873574D01*
X143508320Y-85134727D01*
X143665363Y-85369759D01*
X143865241Y-85569637D01*
X144020000Y-85673043D01*
X144020001Y-114897667D01*
X144016324Y-114935000D01*
X144030998Y-115083985D01*
X144074454Y-115227246D01*
X144145026Y-115359276D01*
X144212362Y-115441324D01*
X144240000Y-115475001D01*
X144268998Y-115498799D01*
X145486200Y-116716002D01*
X145509999Y-116745001D01*
X145625724Y-116839974D01*
X145757753Y-116910546D01*
X145901014Y-116954003D01*
X146012667Y-116965000D01*
X146012676Y-116965000D01*
X146049999Y-116968676D01*
X146087322Y-116965000D01*
X149978822Y-116965000D01*
X150103525Y-117151632D01*
X150310368Y-117358475D01*
X150492534Y-117480195D01*
X150375645Y-117549822D01*
X150159412Y-117744731D01*
X149985359Y-117978080D01*
X149860175Y-118240901D01*
X149815524Y-118388110D01*
X149936845Y-118618000D01*
X151130000Y-118618000D01*
X151130000Y-118598000D01*
X151384000Y-118598000D01*
X151384000Y-118618000D01*
X151404000Y-118618000D01*
X151404000Y-118872000D01*
X151384000Y-118872000D01*
X151384000Y-118892000D01*
X151130000Y-118892000D01*
X151130000Y-118872000D01*
X149936845Y-118872000D01*
X149815524Y-119101890D01*
X149860175Y-119249099D01*
X149985359Y-119511920D01*
X150159412Y-119745269D01*
X150375645Y-119940178D01*
X150492534Y-120009805D01*
X150310368Y-120131525D01*
X150103525Y-120338368D01*
X149941010Y-120581589D01*
X149829068Y-120851842D01*
X149772000Y-121138740D01*
X149772000Y-121431260D01*
X149829068Y-121718158D01*
X149941010Y-121988411D01*
X150103525Y-122231632D01*
X150310368Y-122438475D01*
X150484760Y-122555000D01*
X150310368Y-122671525D01*
X150103525Y-122878368D01*
X149941010Y-123121589D01*
X149829068Y-123391842D01*
X149772000Y-123678740D01*
X149772000Y-123971260D01*
X149829068Y-124258158D01*
X149941010Y-124528411D01*
X150103525Y-124771632D01*
X150310368Y-124978475D01*
X150492534Y-125100195D01*
X150375645Y-125169822D01*
X150159412Y-125364731D01*
X149985359Y-125598080D01*
X149860175Y-125860901D01*
X149815524Y-126008110D01*
X149936845Y-126238000D01*
X151130000Y-126238000D01*
X151130000Y-126218000D01*
X151384000Y-126218000D01*
X151384000Y-126238000D01*
X151404000Y-126238000D01*
X151404000Y-126492000D01*
X151384000Y-126492000D01*
X151384000Y-126512000D01*
X151130000Y-126512000D01*
X151130000Y-126492000D01*
X149936845Y-126492000D01*
X149815524Y-126721890D01*
X149860175Y-126869099D01*
X149985359Y-127131920D01*
X150159412Y-127365269D01*
X150375645Y-127560178D01*
X150459285Y-127610000D01*
X128940715Y-127610000D01*
X129024355Y-127560178D01*
X129240588Y-127365269D01*
X129414641Y-127131920D01*
X129539825Y-126869099D01*
X129584476Y-126721890D01*
X129463155Y-126492000D01*
X128270000Y-126492000D01*
X128270000Y-126512000D01*
X128016000Y-126512000D01*
X128016000Y-126492000D01*
X127996000Y-126492000D01*
X127996000Y-126238000D01*
X128016000Y-126238000D01*
X128016000Y-126218000D01*
X128270000Y-126218000D01*
X128270000Y-126238000D01*
X129463155Y-126238000D01*
X129584476Y-126008110D01*
X129539825Y-125860901D01*
X129414641Y-125598080D01*
X129240588Y-125364731D01*
X129024355Y-125169822D01*
X128907466Y-125100195D01*
X129089632Y-124978475D01*
X129296475Y-124771632D01*
X129458990Y-124528411D01*
X129570932Y-124258158D01*
X129628000Y-123971260D01*
X129628000Y-123678740D01*
X129570932Y-123391842D01*
X129458990Y-123121589D01*
X129296475Y-122878368D01*
X129089632Y-122671525D01*
X128915240Y-122555000D01*
X129089632Y-122438475D01*
X129296475Y-122231632D01*
X129458990Y-121988411D01*
X129570932Y-121718158D01*
X129628000Y-121431260D01*
X129628000Y-121138740D01*
X129570932Y-120851842D01*
X129458990Y-120581589D01*
X129296475Y-120338368D01*
X129089632Y-120131525D01*
X128907466Y-120009805D01*
X129024355Y-119940178D01*
X129240588Y-119745269D01*
X129414641Y-119511920D01*
X129539825Y-119249099D01*
X129584476Y-119101890D01*
X129463155Y-118872000D01*
X128270000Y-118872000D01*
X128270000Y-118892000D01*
X128016000Y-118892000D01*
X128016000Y-118872000D01*
X127996000Y-118872000D01*
X127996000Y-118618000D01*
X128016000Y-118618000D01*
X128016000Y-118598000D01*
X128270000Y-118598000D01*
X128270000Y-118618000D01*
X129463155Y-118618000D01*
X129584476Y-118388110D01*
X129539825Y-118240901D01*
X129414641Y-117978080D01*
X129240588Y-117744731D01*
X129024355Y-117549822D01*
X128907466Y-117480195D01*
X129089632Y-117358475D01*
X129296475Y-117151632D01*
X129421178Y-116965000D01*
X134582667Y-116965000D01*
X134620000Y-116968677D01*
X134657333Y-116965000D01*
X138115199Y-116965000D01*
X138940000Y-117789802D01*
X138940001Y-121276821D01*
X138753368Y-121401525D01*
X138621513Y-121533380D01*
X138599502Y-121460820D01*
X138540537Y-121350506D01*
X138461185Y-121253815D01*
X138364494Y-121174463D01*
X138254180Y-121115498D01*
X138134482Y-121079188D01*
X138010000Y-121066928D01*
X136310000Y-121066928D01*
X136185518Y-121079188D01*
X136065820Y-121115498D01*
X135955506Y-121174463D01*
X135858815Y-121253815D01*
X135779463Y-121350506D01*
X135720498Y-121460820D01*
X135684188Y-121580518D01*
X135671928Y-121705000D01*
X135671928Y-123405000D01*
X135684188Y-123529482D01*
X135720498Y-123649180D01*
X135779463Y-123759494D01*
X135858815Y-123856185D01*
X135955506Y-123935537D01*
X136065820Y-123994502D01*
X136185518Y-124030812D01*
X136310000Y-124043072D01*
X138010000Y-124043072D01*
X138134482Y-124030812D01*
X138254180Y-123994502D01*
X138364494Y-123935537D01*
X138461185Y-123856185D01*
X138540537Y-123759494D01*
X138599502Y-123649180D01*
X138621513Y-123576620D01*
X138753368Y-123708475D01*
X138996589Y-123870990D01*
X139266842Y-123982932D01*
X139553740Y-124040000D01*
X139846260Y-124040000D01*
X140133158Y-123982932D01*
X140403411Y-123870990D01*
X140646632Y-123708475D01*
X140853475Y-123501632D01*
X140975195Y-123319466D01*
X141044822Y-123436355D01*
X141239731Y-123652588D01*
X141473080Y-123826641D01*
X141735901Y-123951825D01*
X141883110Y-123996476D01*
X142113000Y-123875155D01*
X142113000Y-122682000D01*
X142367000Y-122682000D01*
X142367000Y-123875155D01*
X142596890Y-123996476D01*
X142744099Y-123951825D01*
X143006920Y-123826641D01*
X143240269Y-123652588D01*
X143435178Y-123436355D01*
X143584157Y-123186252D01*
X143681481Y-122911891D01*
X143560814Y-122682000D01*
X142367000Y-122682000D01*
X142113000Y-122682000D01*
X142093000Y-122682000D01*
X142093000Y-122428000D01*
X142113000Y-122428000D01*
X142113000Y-121234845D01*
X142367000Y-121234845D01*
X142367000Y-122428000D01*
X143560814Y-122428000D01*
X143681481Y-122198109D01*
X143584157Y-121923748D01*
X143435178Y-121673645D01*
X143240269Y-121457412D01*
X143006920Y-121283359D01*
X142744099Y-121158175D01*
X142596890Y-121113524D01*
X142367000Y-121234845D01*
X142113000Y-121234845D01*
X141883110Y-121113524D01*
X141735901Y-121158175D01*
X141473080Y-121283359D01*
X141239731Y-121457412D01*
X141044822Y-121673645D01*
X140975195Y-121790534D01*
X140853475Y-121608368D01*
X140646632Y-121401525D01*
X140460000Y-121276822D01*
X140460000Y-117512322D01*
X140463676Y-117474999D01*
X140460000Y-117437676D01*
X140460000Y-117437667D01*
X140449003Y-117326014D01*
X140405546Y-117182753D01*
X140334974Y-117050724D01*
X140240001Y-116934999D01*
X140211004Y-116911202D01*
X138993804Y-115694003D01*
X138970001Y-115664999D01*
X138854276Y-115570026D01*
X138722247Y-115499454D01*
X138578986Y-115455997D01*
X138467333Y-115445000D01*
X138467322Y-115445000D01*
X138430000Y-115441324D01*
X138392678Y-115445000D01*
X135380000Y-115445000D01*
X135380000Y-85617087D01*
X135494482Y-85605812D01*
X135614180Y-85569502D01*
X135724494Y-85510537D01*
X135821185Y-85431185D01*
X135900537Y-85334494D01*
X135959502Y-85224180D01*
X135995812Y-85104482D01*
X136008072Y-84980000D01*
X136008072Y-83930000D01*
X135995812Y-83805518D01*
X135959502Y-83685820D01*
X135924907Y-83621098D01*
X135988215Y-83412400D01*
X136010612Y-83185000D01*
X135988215Y-82957600D01*
X135921885Y-82738940D01*
X135821071Y-82550331D01*
X135862275Y-82491882D01*
X135955272Y-82282337D01*
X135963964Y-82220810D01*
X135838163Y-82042000D01*
X135073109Y-82042000D01*
X135072400Y-82041785D01*
X134901979Y-82025000D01*
X134338021Y-82025000D01*
X134167600Y-82041785D01*
X134166891Y-82042000D01*
X133401837Y-82042000D01*
X133276036Y-82220810D01*
X133284728Y-82282337D01*
X133377725Y-82491882D01*
X133418929Y-82550331D01*
X133318115Y-82738940D01*
X133251785Y-82957600D01*
X133229388Y-83185000D01*
X133251785Y-83412400D01*
X133315093Y-83621098D01*
X133280498Y-83685820D01*
X133244188Y-83805518D01*
X133231928Y-83930000D01*
X133231928Y-84980000D01*
X133244188Y-85104482D01*
X133280498Y-85224180D01*
X133339463Y-85334494D01*
X133418815Y-85431185D01*
X133515506Y-85510537D01*
X133625820Y-85569502D01*
X133745518Y-85605812D01*
X133860000Y-85617087D01*
X133860001Y-115445000D01*
X129421178Y-115445000D01*
X129296475Y-115258368D01*
X129089632Y-115051525D01*
X128915240Y-114935000D01*
X129089632Y-114818475D01*
X129296475Y-114611632D01*
X129458990Y-114368411D01*
X129570932Y-114098158D01*
X129628000Y-113811260D01*
X129628000Y-113518740D01*
X129570932Y-113231842D01*
X129458990Y-112961589D01*
X129296475Y-112718368D01*
X129089632Y-112511525D01*
X128915240Y-112395000D01*
X129089632Y-112278475D01*
X129296475Y-112071632D01*
X129458990Y-111828411D01*
X129570932Y-111558158D01*
X129628000Y-111271260D01*
X129628000Y-110978740D01*
X129570932Y-110691842D01*
X129458990Y-110421589D01*
X129296475Y-110178368D01*
X129089632Y-109971525D01*
X128915240Y-109855000D01*
X129089632Y-109738475D01*
X129296475Y-109531632D01*
X129458990Y-109288411D01*
X129570932Y-109018158D01*
X129628000Y-108731260D01*
X129628000Y-108438740D01*
X129570932Y-108151842D01*
X129458990Y-107881589D01*
X129296475Y-107638368D01*
X129089632Y-107431525D01*
X128915240Y-107315000D01*
X129089632Y-107198475D01*
X129296475Y-106991632D01*
X129458990Y-106748411D01*
X129570932Y-106478158D01*
X129628000Y-106191260D01*
X129628000Y-105898740D01*
X129570932Y-105611842D01*
X129458990Y-105341589D01*
X129296475Y-105098368D01*
X129089632Y-104891525D01*
X128915240Y-104775000D01*
X129089632Y-104658475D01*
X129296475Y-104451632D01*
X129458990Y-104208411D01*
X129570932Y-103938158D01*
X129628000Y-103651260D01*
X129628000Y-103358740D01*
X129570932Y-103071842D01*
X129458990Y-102801589D01*
X129296475Y-102558368D01*
X129089632Y-102351525D01*
X128915240Y-102235000D01*
X129089632Y-102118475D01*
X129296475Y-101911632D01*
X129458990Y-101668411D01*
X129570932Y-101398158D01*
X129628000Y-101111260D01*
X129628000Y-100818740D01*
X129570932Y-100531842D01*
X129458990Y-100261589D01*
X129296475Y-100018368D01*
X129089632Y-99811525D01*
X128915240Y-99695000D01*
X129089632Y-99578475D01*
X129296475Y-99371632D01*
X129458990Y-99128411D01*
X129570932Y-98858158D01*
X129628000Y-98571260D01*
X129628000Y-98278740D01*
X129570932Y-97991842D01*
X129458990Y-97721589D01*
X129296475Y-97478368D01*
X129089632Y-97271525D01*
X128915240Y-97155000D01*
X129089632Y-97038475D01*
X129296475Y-96831632D01*
X129458990Y-96588411D01*
X129570932Y-96318158D01*
X129628000Y-96031260D01*
X129628000Y-95738740D01*
X129570932Y-95451842D01*
X129458990Y-95181589D01*
X129296475Y-94938368D01*
X129089632Y-94731525D01*
X128915240Y-94615000D01*
X129089632Y-94498475D01*
X129296475Y-94291632D01*
X129458990Y-94048411D01*
X129570932Y-93778158D01*
X129628000Y-93491260D01*
X129628000Y-93198740D01*
X129570932Y-92911842D01*
X129458990Y-92641589D01*
X129296475Y-92398368D01*
X129089632Y-92191525D01*
X128915240Y-92075000D01*
X129089632Y-91958475D01*
X129296475Y-91751632D01*
X129458990Y-91508411D01*
X129570932Y-91238158D01*
X129628000Y-90951260D01*
X129628000Y-90658740D01*
X129570932Y-90371842D01*
X129458990Y-90101589D01*
X129296475Y-89858368D01*
X129089632Y-89651525D01*
X128915240Y-89535000D01*
X129089632Y-89418475D01*
X129296475Y-89211632D01*
X129458990Y-88968411D01*
X129570932Y-88698158D01*
X129628000Y-88411260D01*
X129628000Y-88118740D01*
X129570932Y-87831842D01*
X129458990Y-87561589D01*
X129296475Y-87318368D01*
X129089632Y-87111525D01*
X128915240Y-86995000D01*
X129089632Y-86878475D01*
X129296475Y-86671632D01*
X129458990Y-86428411D01*
X129570932Y-86158158D01*
X129628000Y-85871260D01*
X129628000Y-85578740D01*
X129570932Y-85291842D01*
X129458990Y-85021589D01*
X129296475Y-84778368D01*
X129089632Y-84571525D01*
X128915240Y-84455000D01*
X129089632Y-84338475D01*
X129296475Y-84131632D01*
X129458990Y-83888411D01*
X129570932Y-83618158D01*
X129628000Y-83331260D01*
X129628000Y-83038740D01*
X129570932Y-82751842D01*
X129458990Y-82481589D01*
X129296475Y-82238368D01*
X129089632Y-82031525D01*
X128915240Y-81915000D01*
X129089632Y-81798475D01*
X129278917Y-81609190D01*
X133276036Y-81609190D01*
X133401837Y-81788000D01*
X134493000Y-81788000D01*
X134493000Y-80908402D01*
X134747000Y-80908402D01*
X134747000Y-81788000D01*
X135838163Y-81788000D01*
X135963964Y-81609190D01*
X135955272Y-81547663D01*
X135862275Y-81338118D01*
X135730184Y-81150742D01*
X135564076Y-80992736D01*
X135370334Y-80870172D01*
X135156404Y-80787761D01*
X134930507Y-80748669D01*
X134747000Y-80908402D01*
X134493000Y-80908402D01*
X134309493Y-80748669D01*
X134083596Y-80787761D01*
X133869666Y-80870172D01*
X133675924Y-80992736D01*
X133509816Y-81150742D01*
X133377725Y-81338118D01*
X133284728Y-81547663D01*
X133276036Y-81609190D01*
X129278917Y-81609190D01*
X129296475Y-81591632D01*
X129458990Y-81348411D01*
X129570932Y-81078158D01*
X129628000Y-80791260D01*
X129628000Y-80498740D01*
X129570932Y-80211842D01*
X129458990Y-79941589D01*
X129319417Y-79732702D01*
X133806903Y-79732702D01*
X133878486Y-79976671D01*
X134133996Y-80097571D01*
X134408184Y-80166300D01*
X134690512Y-80180217D01*
X134970130Y-80138787D01*
X135236292Y-80043603D01*
X135361514Y-79976671D01*
X135433097Y-79732702D01*
X134620000Y-78919605D01*
X133806903Y-79732702D01*
X129319417Y-79732702D01*
X129296475Y-79698368D01*
X129164620Y-79566513D01*
X129237180Y-79544502D01*
X129347494Y-79485537D01*
X129444185Y-79406185D01*
X129523537Y-79309494D01*
X129582502Y-79199180D01*
X129618812Y-79079482D01*
X129631072Y-78955000D01*
X129630286Y-78810512D01*
X133179783Y-78810512D01*
X133221213Y-79090130D01*
X133316397Y-79356292D01*
X133383329Y-79481514D01*
X133627298Y-79553097D01*
X134440395Y-78740000D01*
X134799605Y-78740000D01*
X135612702Y-79553097D01*
X135856671Y-79481514D01*
X135977571Y-79226004D01*
X136046300Y-78951816D01*
X136060217Y-78669488D01*
X136018787Y-78389870D01*
X135923603Y-78123708D01*
X135856671Y-77998486D01*
X135612702Y-77926903D01*
X134799605Y-78740000D01*
X134440395Y-78740000D01*
X133627298Y-77926903D01*
X133383329Y-77998486D01*
X133262429Y-78253996D01*
X133193700Y-78528184D01*
X133179783Y-78810512D01*
X129630286Y-78810512D01*
X129628000Y-78390750D01*
X129469250Y-78232000D01*
X128270000Y-78232000D01*
X128270000Y-78252000D01*
X128016000Y-78252000D01*
X128016000Y-78232000D01*
X127996000Y-78232000D01*
X127996000Y-77978000D01*
X128016000Y-77978000D01*
X128016000Y-77958000D01*
X128270000Y-77958000D01*
X128270000Y-77978000D01*
X129469250Y-77978000D01*
X129628000Y-77819250D01*
X129628391Y-77747298D01*
X133806903Y-77747298D01*
X134620000Y-78560395D01*
X135433097Y-77747298D01*
X135361514Y-77503329D01*
X135106004Y-77382429D01*
X134831816Y-77313700D01*
X134549488Y-77299783D01*
X134269870Y-77341213D01*
X134003708Y-77436397D01*
X133878486Y-77503329D01*
X133806903Y-77747298D01*
X129628391Y-77747298D01*
X129631072Y-77255000D01*
X129618812Y-77130518D01*
X129582502Y-77010820D01*
X129523537Y-76900506D01*
X129490295Y-76860000D01*
X149909705Y-76860000D01*
X149876463Y-76900506D01*
G37*
%TD.AperFunction*%
%TD*%
M02*
