%TF.GenerationSoftware,KiCad,Pcbnew,5.1.8-db9833491~87~ubuntu20.04.1*%
%TF.CreationDate,2020-11-06T01:47:00-05:00*%
%TF.ProjectId,shield,73686965-6c64-42e6-9b69-6361645f7063,rev?*%
%TF.SameCoordinates,Original*%
%TF.FileFunction,Legend,Top*%
%TF.FilePolarity,Positive*%
%FSLAX46Y46*%
G04 Gerber Fmt 4.6, Leading zero omitted, Abs format (unit mm)*
G04 Created by KiCad (PCBNEW 5.1.8-db9833491~87~ubuntu20.04.1) date 2020-11-06 01:47:00*
%MOMM*%
%LPD*%
G01*
G04 APERTURE LIST*
%ADD10C,0.300000*%
%ADD11C,0.120000*%
G04 APERTURE END LIST*
D10*
X137965857Y-81958571D02*
X137108714Y-81958571D01*
X137537285Y-81958571D02*
X137537285Y-80458571D01*
X137394428Y-80672857D01*
X137251571Y-80815714D01*
X137108714Y-80887142D01*
X138894428Y-80458571D02*
X139037285Y-80458571D01*
X139180142Y-80530000D01*
X139251571Y-80601428D01*
X139323000Y-80744285D01*
X139394428Y-81030000D01*
X139394428Y-81387142D01*
X139323000Y-81672857D01*
X139251571Y-81815714D01*
X139180142Y-81887142D01*
X139037285Y-81958571D01*
X138894428Y-81958571D01*
X138751571Y-81887142D01*
X138680142Y-81815714D01*
X138608714Y-81672857D01*
X138537285Y-81387142D01*
X138537285Y-81030000D01*
X138608714Y-80744285D01*
X138680142Y-80601428D01*
X138751571Y-80530000D01*
X138894428Y-80458571D01*
X140323000Y-80458571D02*
X140465857Y-80458571D01*
X140608714Y-80530000D01*
X140680142Y-80601428D01*
X140751571Y-80744285D01*
X140823000Y-81030000D01*
X140823000Y-81387142D01*
X140751571Y-81672857D01*
X140680142Y-81815714D01*
X140608714Y-81887142D01*
X140465857Y-81958571D01*
X140323000Y-81958571D01*
X140180142Y-81887142D01*
X140108714Y-81815714D01*
X140037285Y-81672857D01*
X139965857Y-81387142D01*
X139965857Y-81030000D01*
X140037285Y-80744285D01*
X140108714Y-80601428D01*
X140180142Y-80530000D01*
X140323000Y-80458571D01*
X141465857Y-81958571D02*
X141465857Y-80458571D01*
X141608714Y-81387142D02*
X142037285Y-81958571D01*
X142037285Y-80958571D02*
X141465857Y-81530000D01*
X143744285Y-88054571D02*
X143030000Y-88054571D01*
X143030000Y-86554571D01*
X144244285Y-88054571D02*
X144244285Y-86554571D01*
X144601428Y-86554571D01*
X144815714Y-86626000D01*
X144958571Y-86768857D01*
X145030000Y-86911714D01*
X145101428Y-87197428D01*
X145101428Y-87411714D01*
X145030000Y-87697428D01*
X144958571Y-87840285D01*
X144815714Y-87983142D01*
X144601428Y-88054571D01*
X144244285Y-88054571D01*
X146601428Y-88054571D02*
X146101428Y-87340285D01*
X145744285Y-88054571D02*
X145744285Y-86554571D01*
X146315714Y-86554571D01*
X146458571Y-86626000D01*
X146530000Y-86697428D01*
X146601428Y-86840285D01*
X146601428Y-87054571D01*
X146530000Y-87197428D01*
X146458571Y-87268857D01*
X146315714Y-87340285D01*
X145744285Y-87340285D01*
X131155714Y-86554571D02*
X132012857Y-86554571D01*
X131584285Y-88054571D02*
X131584285Y-86554571D01*
X132512857Y-88054571D02*
X132512857Y-86554571D01*
X133012857Y-87626000D01*
X133512857Y-86554571D01*
X133512857Y-88054571D01*
X134227142Y-88054571D02*
X134227142Y-86554571D01*
X134798571Y-86554571D01*
X134941428Y-86626000D01*
X135012857Y-86697428D01*
X135084285Y-86840285D01*
X135084285Y-87054571D01*
X135012857Y-87197428D01*
X134941428Y-87268857D01*
X134798571Y-87340285D01*
X134227142Y-87340285D01*
X135584285Y-86554571D02*
X136512857Y-86554571D01*
X136012857Y-87126000D01*
X136227142Y-87126000D01*
X136370000Y-87197428D01*
X136441428Y-87268857D01*
X136512857Y-87411714D01*
X136512857Y-87768857D01*
X136441428Y-87911714D01*
X136370000Y-87983142D01*
X136227142Y-88054571D01*
X135798571Y-88054571D01*
X135655714Y-87983142D01*
X135584285Y-87911714D01*
X137798571Y-86554571D02*
X137512857Y-86554571D01*
X137370000Y-86626000D01*
X137298571Y-86697428D01*
X137155714Y-86911714D01*
X137084285Y-87197428D01*
X137084285Y-87768857D01*
X137155714Y-87911714D01*
X137227142Y-87983142D01*
X137370000Y-88054571D01*
X137655714Y-88054571D01*
X137798571Y-87983142D01*
X137870000Y-87911714D01*
X137941428Y-87768857D01*
X137941428Y-87411714D01*
X137870000Y-87268857D01*
X137798571Y-87197428D01*
X137655714Y-87126000D01*
X137370000Y-87126000D01*
X137227142Y-87197428D01*
X137155714Y-87268857D01*
X137084285Y-87411714D01*
D11*
%TO.C,R1*%
X142647856Y-84543027D02*
G75*
G03*
X146930000Y-84515000I2132144J1378027D01*
G01*
X146914388Y-81839524D02*
G75*
G03*
X142630000Y-81865000I-2134388J-1325476D01*
G01*
X142630000Y-81865000D02*
X142630000Y-84515000D01*
X146930000Y-81865000D02*
X146930000Y-84515000D01*
%TO.C,R2*%
X136430000Y-77370000D02*
X136430000Y-80110000D01*
X136430000Y-80110000D02*
X142970000Y-80110000D01*
X142970000Y-80110000D02*
X142970000Y-77370000D01*
X142970000Y-77370000D02*
X136430000Y-77370000D01*
X135660000Y-78740000D02*
X136430000Y-78740000D01*
X143740000Y-78740000D02*
X142970000Y-78740000D01*
%TO.C,U1*%
X136310122Y-81316389D02*
G75*
G03*
X136320000Y-85205000I-1690122J-1948611D01*
G01*
X136320000Y-85205000D02*
X136320000Y-81355000D01*
%TD*%
M02*
